<svg xmlns="http://www.w3.org/2000/svg" viewBox="0 0 511.994 511.994" xmlns:v="https://vecta.io/nano"><circle cx="255.997" cy="255.997" r="255.997" fill="#6b7f9e"/><path d="M177.438 161.081l78.559 83.786 78.559-83.786 11.088 10.431-79.216 84.485 79.216 84.485-11.088 10.431-78.559-83.786-78.559 83.786-11.082-10.431 79.21-84.485-79.21-84.485z" fill="#fff"/><path d="M255.997 195.897c33.191 0 60.112 26.909 60.112 60.1s-26.921 60.106-60.112 60.106-60.106-26.915-60.106-60.106 26.915-60.1 60.106-60.1z" fill="#ecf0f1"/><path d="M255.997 200.98c30.384 0 55.017 24.626 55.017 55.017 0 30.378-24.626 55.017-55.017 55.017-30.378 0-55.017-24.638-55.017-55.017 0-30.39 24.639-55.017 55.017-55.017z" fill="#ffe356"/><path d="M235.496 276.944h1.433l8.402-4.583 1.367-5.348c-2-2.018-4.071-5.438-5.95-9.648-.151.024-.307.036-.47.036-2.222 0-4.421-2.415-4.914-5.396-.385-2.337.385-4.324 1.807-5.077-1.879-9.582-3.126-24.295 13.376-27.933 9.901-2.18 13.436 5.463 13.87 6.3 5.992-3.361 9.799 1.68 10.774 4.348 1.771 4.824 1.192 13.798.289 17.761 1 .952 1.482 2.656 1.156 4.601-.488 2.933-2.62 5.318-4.806 5.396-1.765 3.873-4.125 7.197-6.535 9.612l1.367 5.348h.114l8.173 4.583h1.548c10.082 0 18.447 7.414 19.501 16.815-10.034 10.624-24.247 17.261-40.008 17.261s-29.975-6.637-40.008-17.261c1.054-9.419 9.419-16.815 19.501-16.815h.013z" fill="#fff"/><path d="M148.686 82.889c32.39 0 58.66 26.253 58.66 58.642s-26.271 58.654-58.66 58.654-58.654-26.271-58.654-58.654c0-32.389 26.265-58.642 58.654-58.642zm0 228.92c32.39 0 58.66 26.253 58.66 58.642s-26.271 58.66-58.66 58.66-58.654-26.271-58.654-58.66 26.265-58.642 58.654-58.642zm214.628 0c32.39 0 58.654 26.253 58.654 58.642s-26.265 58.66-58.654 58.66-58.66-26.271-58.66-58.66 26.27-58.642 58.66-58.642zm0-228.92c32.39 0 58.654 26.253 58.654 58.642s-26.265 58.654-58.654 58.654-58.66-26.271-58.66-58.654c0-32.389 26.27-58.642 58.66-58.642z" fill="#ecf0f1"/><path d="M148.686 89.123c28.945 0 52.421 23.464 52.421 52.409s-23.476 52.421-52.421 52.421-52.421-23.476-52.421-52.421 23.477-52.409 52.421-52.409z" fill="#ff7069"/><path d="M129.637 162.297h1.331l7.805-4.258 1.271-4.969c-1.861-1.879-3.782-5.059-5.529-8.962-.145.024-.289.03-.44.03-2.06 0-4.101-2.246-4.565-5.017-.361-2.168.361-4.017 1.674-4.716-1.747-8.901-2.903-22.573 12.431-25.951 9.197-2.03 12.485 5.077 12.882 5.854 5.571-3.126 9.106 1.56 10.016 4.041 1.644 4.481 1.108 12.81.271 16.496.927.885 1.373 2.469 1.072 4.276-.452 2.722-2.439 4.939-4.463 5.011-1.638 3.602-3.836 6.685-6.071 8.932l1.271 4.969h.108l7.588 4.258h1.445c9.552 0 17.441 7.161 18.17 16.135-9.498 9.582-22.669 15.52-37.226 15.52-14.551 0-27.722-5.938-37.22-15.52.723-8.992 8.618-16.135 18.17-16.135l.009.006z" fill="#fff"/><path d="M363.308 89.123c28.957 0 52.421 23.464 52.421 52.409s-23.464 52.421-52.421 52.421c-28.945 0-52.409-23.476-52.409-52.421s23.464-52.409 52.409-52.409z" fill="#83cf8f"/><path d="M344.258 162.297h1.337l7.805-4.258 1.271-4.969c-1.861-1.879-3.782-5.059-5.535-8.962a2.55 2.55 0 0 1-.434.03c-2.06 0-4.107-2.246-4.565-5.017-.361-2.168.361-4.017 1.674-4.716-1.747-8.901-2.903-22.573 12.431-25.951 9.197-2.03 12.485 5.077 12.882 5.854 5.571-3.126 9.106 1.56 10.016 4.041 1.644 4.481 1.108 12.81.271 16.496.921.885 1.373 2.469 1.072 4.276-.452 2.722-2.439 4.939-4.463 5.011-1.638 3.602-3.836 6.685-6.071 8.932l1.271 4.969h.108l7.589 4.258h1.445c9.552 0 17.441 7.161 18.17 16.135-9.498 9.582-22.669 15.52-37.226 15.52s-27.722-5.938-37.22-15.52c.729-8.992 8.618-16.135 18.17-16.135v.006z" fill="#fff"/><path d="M148.686 318.042c28.945 0 52.421 23.464 52.421 52.409 0 28.957-23.476 52.421-52.421 52.421s-52.421-23.464-52.421-52.421c0-28.945 23.477-52.409 52.421-52.409z" fill="#83cf8f"/><path d="M187.64 405.526c-9.594 10.648-23.494 17.345-38.954 17.345s-29.36-6.697-38.954-17.345c1.728-8.468 9.546-14.906 18.863-14.906h1.409l8.233-4.493 1.337-5.24c-1.963-1.981-3.987-5.33-5.83-9.456a2.89 2.89 0 0 1-.458.036c-2.174 0-4.33-2.367-4.818-5.288-.379-2.283.379-4.234 1.771-4.969-1.843-9.389-3.066-23.807 13.105-27.373 9.702-2.132 13.165 5.354 13.587 6.173 5.872-3.294 9.606 1.644 10.558 4.258 1.735 4.728 1.168 13.515.289 17.399.976.927 1.451 2.602 1.132 4.511-.476 2.873-2.572 5.21-4.71 5.288-1.728 3.8-4.047 7.052-6.402 9.419l1.343 5.24h.114l8.004 4.493h1.524c9.305 0 17.128 6.456 18.863 14.906h-.006z" fill="#fff"/><path d="M363.308 318.042c28.957 0 52.421 23.464 52.421 52.409 0 28.957-23.464 52.421-52.421 52.421-28.945 0-52.409-23.464-52.409-52.421 0-28.945 23.464-52.409 52.409-52.409z" fill="#ff7069"/><path d="M402.413 405.364c-9.6 10.744-23.554 17.508-39.105 17.508-15.538 0-29.499-6.763-39.093-17.508 2.036-8.173 9.727-14.286 18.845-14.286h1.421l8.299-4.529 1.349-5.276c-1.975-1.999-4.017-5.372-5.878-9.528a2.91 2.91 0 0 1-.464.036c-2.186 0-4.366-2.385-4.854-5.33-.379-2.307.385-4.27 1.783-5.011-1.855-9.468-3.084-24 13.214-27.59 9.775-2.15 13.274 5.396 13.695 6.221 5.92-3.318 9.678 1.662 10.642 4.294 1.747 4.764 1.18 13.623.289 17.538.988.94 1.464 2.62 1.144 4.547-.482 2.897-2.59 5.252-4.746 5.33-1.741 3.83-4.083 7.113-6.456 9.492l1.349 5.282h.114l8.07 4.529h1.536c9.112 0 16.809 6.131 18.845 14.292v-.011z" fill="#fff"/></svg>