<?xml version="1.0" encoding="UTF-8"?>
<svg version="1.1" xmlns="http://www.w3.org/2000/svg" width="1200" height="1200">
<path d="M0 0 C21.78 0 43.56 0 66 0 C73.57470636 16.89742187 81.12145313 33.78288963 88.44921875 50.78515625 C92.25263634 59.59931014 96.08703166 68.39994347 99.92346191 77.19976807 C101.03754481 79.75525764 102.15110612 82.31097406 103.26464844 84.86669922 C103.95894018 86.45932916 104.65327417 88.05194069 105.34765625 89.64453125 C105.65758011 90.3558873 105.96750397 91.06724335 106.28681946 91.80015564 C106.58541367 92.48461258 106.88400787 93.16906952 107.19165039 93.87426758 C107.48210236 94.54253571 107.77255432 95.21080383 108.07180786 95.89932251 C108.73959813 97.41066043 109.42306292 98.91510789 110.11642456 100.41488647 C110.48333405 101.21343048 110.85024353 102.01197449 111.22827148 102.8347168 C111.56656479 103.55982956 111.90485809 104.28494232 112.25340271 105.0320282 C113 107 113 107 113 110 C113.66 110 114.32 110 115 110 C115.10473633 109.31671631 115.20947266 108.63343262 115.31738281 107.92944336 C116.12551438 104.46135658 117.4610196 101.35819855 118.921875 98.12890625 C119.2177652 97.46356873 119.5136554 96.7982312 119.81851196 96.11273193 C120.45712202 94.67807074 121.09799833 93.24441661 121.74090576 91.81167603 C123.11794999 88.74237412 124.48365241 85.66807157 125.849823 82.59391785 C126.55155204 81.01492028 127.25380621 79.43615599 127.95657349 77.85762024 C131.14296463 70.69597683 134.26821246 63.50906661 137.375 56.3125 C138.41905715 53.8970427 139.46326428 51.48165114 140.5078125 49.06640625 C140.77623962 48.44562698 141.04466675 47.82484772 141.32122803 47.18525696 C144.89525976 38.92420252 148.4904447 30.67234393 152.08624268 22.42074585 C152.85888308 20.64758737 153.63130517 18.87433375 154.40350342 17.10098267 C155.48198551 14.62436966 156.56119069 12.1480731 157.640625 9.671875 C157.96602264 8.92441513 158.29142029 8.17695526 158.62667847 7.40684509 C160.88530241 2.22939519 160.88530241 2.22939519 162 0 C183.78 0 205.56 0 228 0 C228 67.32 228 134.64 228 204 C210.18 204 192.36 204 174 204 C173.67 166.38 173.34 128.76 173 90 C164.11666929 111.3199937 155.26125333 132.6313119 146.67089844 154.06713867 C145.4883527 157.01562893 144.30285982 159.96292219 143.1171875 162.91015625 C142.77444794 163.76851578 142.43170837 164.62687531 142.07858276 165.51124573 C139.55758858 171.77529651 136.80180971 177.83601864 134 184 C120.8 184 107.6 184 94 184 C88.37444604 171.62378128 88.37444604 171.62378128 86.60327148 167.27026367 C86.2019249 166.28680466 85.80057831 165.30334564 85.3870697 164.29008484 C84.96929764 163.25978653 84.55152557 162.22948822 84.12109375 161.16796875 C83.66831558 160.05609695 83.21553741 158.94422516 82.7490387 157.79866028 C81.79249714 155.44847658 80.8370242 153.09785769 79.88256836 150.74682617 C78.46770154 147.26188896 77.04960283 143.77828241 75.63085938 140.29492188 C68.68745949 123.22232686 61.84515919 106.11289797 55 89 C54.67 126.95 54.34 164.9 54 204 C36.18 204 18.36 204 0 204 C0 136.68 0 69.36 0 0 Z " fill="#243A76" transform="translate(265,420)"/>
<path d="M0 0 C17.49 0 34.98 0 53 0 C60.67848044 9.87233199 68.31854125 19.70672328 75.79296875 29.72265625 C79.55740875 34.75746018 83.3732963 39.75285445 87.1875 44.75 C91.99713489 51.05237656 96.78617534 57.36765007 101.53125 63.71875 C105.69051359 69.26443479 109.91192296 74.76341743 114.11694336 80.27441406 C118.41147281 85.90575215 122.68382554 91.5516132 126.91015625 97.234375 C129.89801896 101.1884064 132.95732569 105.08799017 136 109 C136.33 73.03 136.66 37.06 137 0 C155.48 0 173.96 0 193 0 C193 67.32 193 134.64 193 204 C175.84 204 158.68 204 141 204 C121.34504132 178.72933884 121.34504132 178.72933884 113 167 C112.53851562 168.07636719 112.07703125 169.15273438 111.6015625 170.26171875 C101.35264647 193.48742967 83.09345949 214.14599544 59.06640625 223.703125 C51.27595519 226.35065338 43.10347034 227.76241118 35.05175781 229.37353516 C29.97396214 230.41590505 24.92582607 231.58504322 19.875 232.75 C9.30163479 235.17894108 9.30163479 235.17894108 5 236 C6.31961832 233.01484399 7.66454551 231.24213526 10.125 229.125 C16.87704901 222.61308663 20.8609507 213.2780986 25 205 C30.28 205 35.56 205 41 205 C39.29395475 209.26511313 37.90212286 211.61418999 35 215 C35.58007812 214.61328125 36.16015625 214.2265625 36.7578125 213.828125 C41.171875 210.88541667 45.5859375 207.94270833 50 205 C25.25 204.505 25.25 204.505 0 204 C0 136.68 0 69.36 0 0 Z M56 92 C56 128.3 56 164.6 56 202 C78.14884846 191.7258653 78.14884846 191.7258653 98 178 C98.886875 177.360625 99.77375 176.72125 100.6875 176.0625 C103.48941057 173.56349868 105.51434726 170.76983332 107.66796875 167.70703125 C109 166 109 166 111 165 C109.20158149 160.82472428 106.42180264 157.4046487 103.6875 153.8125 C103.15479492 153.10762451 102.62208984 152.40274902 102.07324219 151.67651367 C100.38643329 149.44772746 98.69425566 147.22312958 97 145 C96.47937988 144.31679688 95.95875977 143.63359375 95.42236328 142.9296875 C92.21783448 138.72862221 89.0053345 134.5336808 85.79199219 130.33935547 C82.48339046 126.0201427 79.17688453 121.69935084 75.875 117.375 C74.86505981 116.05266357 74.86505981 116.05266357 73.8347168 114.70361328 C69.19987369 108.61836882 64.64047238 102.48313179 60.18505859 96.26513672 C59.14624721 94.82662562 58.07672442 93.41035733 57 92 C56.67 92 56.34 92 56 92 Z " fill="#243A76" transform="translate(709,420)"/>
<path d="M0 0 C20.79 0 41.58 0 63 0 C62.67 4.29 62.34 8.58 62 13 C64.09392358 17.18784715 64.70392863 17.73344901 68.625 19.75 C69.44226563 20.17796875 70.25953125 20.6059375 71.1015625 21.046875 C71.72804688 21.36140625 72.35453125 21.6759375 73 22 C73.25 27.625 73.25 27.625 71 31 C67.375 32.1875 67.375 32.1875 64 33 C63.40929986 34.94603274 63.40929986 34.94603274 63 37 C63.33 37.33 63.66 37.66 64 38 C64.44227628 48.31697721 63.88959379 58.67810628 63.25537109 68.9765625 C63.12297251 71.15841187 63.00463559 73.34076273 62.88671875 75.5234375 C62.80292473 76.93494603 62.71832022 78.34640674 62.6328125 79.7578125 C62.55949707 81.0070752 62.48618164 82.25633789 62.41064453 83.54345703 C62.00630548 86.94692449 61.14251619 89.78217201 60 93 C59.83142517 95.75065232 59.83142517 95.75065232 60 98 C61.134375 98.28875 62.26875 98.5775 63.4375 98.875 C65.2009375 99.431875 65.2009375 99.431875 67 100 C68.39935013 102.79870027 68.25265405 104.90498792 68 108 C65.78154372 111.52343057 61.7018135 112.4519689 58 114 C55.01301414 116.98698586 55.05364704 119.26235317 54.75 123.4375 C55.02017651 127.28751529 55.60896336 129.0112042 58 132 C60.82342811 133.69984363 63.10515585 134.28971673 66.37524414 134.50244141 C67.23457047 134.5623526 68.09389679 134.62226379 68.97926331 134.68399048 C69.90520798 134.73928925 70.83115265 134.79458801 71.78515625 134.8515625 C72.75545273 134.91532074 73.72574921 134.97907898 74.72544861 135.04476929 C76.78715911 135.17822074 78.84915054 135.30739052 80.91137695 135.43261719 C83.99967792 135.62116458 87.08666324 135.8250259 90.17382812 136.03125 C96.11334209 136.41701268 102.05420109 136.7293171 108 137 C109.39638702 137.06858215 109.39638702 137.06858215 110.82098389 137.1385498 C113.4419316 137.25555588 116.06088254 137.33418089 118.68359375 137.3984375 C119.45558609 137.43514557 120.22757843 137.47185364 121.02296448 137.50967407 C125.03538915 137.55940731 126.78668499 137.16688609 129.98706055 134.66308594 C132.41941865 131.44511599 132.56470456 129.85879566 132.375 125.875 C132.34148437 124.84117187 132.30796875 123.80734375 132.2734375 122.7421875 C132.09294758 119.91128272 132.09294758 119.91128272 131 117 C129.02253397 116.26919734 127.01927511 115.60578253 125 115 C123.515 114.01 123.515 114.01 122 113 C121.6875 109.5 121.6875 109.5 122 106 C124.6855594 103.3144406 127.37621328 102.93950026 131 102 C131.042721 100.33388095 131.04063832 98.66617115 131 97 C130.67 96.67 130.34 96.34 130 96 C130.09086451 93.46458702 130.2370945 90.96445216 130.4375 88.4375 C130.48970703 87.72658203 130.54191406 87.01566406 130.59570312 86.28320312 C130.72574107 84.52178001 130.86226897 82.76083827 131 81 C136.20579418 80.8474269 138.61103905 81.27172698 143 84 C145.1477633 84.00478037 145.1477633 84.00478037 147 83 C147.44712845 82.48829758 147.8942569 81.97659515 148.35493469 81.4493866 C150 80 150 80 151.95524597 79.75312805 C152.69470963 79.81308456 153.43417328 79.87304108 154.19604492 79.93481445 C155.03668991 79.9951033 155.8773349 80.05539215 156.74345398 80.11750793 C157.64666885 80.19861313 158.54988373 80.27971832 159.48046875 80.36328125 C160.40845779 80.43411423 161.33644684 80.5049472 162.29255676 80.57792664 C165.25894264 80.80781698 168.22297187 81.05987816 171.1875 81.3125 C173.19714998 81.4721655 175.20691526 81.63038676 177.21679688 81.78710938 C182.14602607 82.17465457 187.07325575 82.58209382 192 83 C192.07546443 88.63351678 192.12920634 94.2667247 192.16479492 99.90063477 C192.1796668 101.8079136 192.19997049 103.71515963 192.22631836 105.62231445 C192.61787612 134.74346291 187.9012574 160.50699053 166.87890625 182.1875 C144.69111597 203.0318094 115.48705659 206.78065979 86.30761719 206.13623047 C60.43901844 205.07078331 37.70929781 194.48854433 19.64453125 176.01953125 C4.22019541 159.03661943 -0.18232045 136.60670242 -0.11352539 114.43359375 C-0.11367142 113.19372208 -0.11381744 111.9538504 -0.1139679 110.67640686 C-0.11339322 107.29886478 -0.10839987 103.92138485 -0.10139394 100.54385376 C-0.09511572 97.00580023 -0.09455308 93.46774574 -0.09336853 89.9296875 C-0.09026834 83.2398698 -0.08207273 76.55006857 -0.07201904 69.8602581 C-0.05871985 60.81324973 -0.05334739 51.76623681 -0.04751682 42.71922112 C-0.03813189 28.47946843 -0.01820423 14.23975047 0 0 Z " fill="#243C79" transform="translate(505,420)"/>
<path d="M0 0 C1.09526001 -0.00809692 1.09526001 -0.00809692 2.21264648 -0.01635742 C7.53681657 0.03097107 12.43458465 0.81154322 17.625 1.9375 C24.29558043 3.34468902 29.4386435 2.9992829 36.04321289 1.48266602 C61.20886095 -4.18215443 85.65938363 6.01683131 108.42163086 15.69726562 C126.16286096 23.17087147 144.23876653 27.8360693 162.9296875 20.51904297 C165.83886049 19.25548603 168.68051695 17.87804272 171.515625 16.45703125 C174.0625 15.25 174.0625 15.25 176.0625 15.25 C171.78627334 25.34917361 159.69572068 31.88550882 150.0625 36.25 C132.23014042 43.33108238 111.74506861 42.02407812 94.22265625 34.6953125 C85.14711122 30.60420474 77.28244394 24.99534529 69.22607422 19.20288086 C59.71532443 12.43863472 51.75278456 9.18253797 40.0625 8.25 C41.16464844 8.83265625 42.26679687 9.4153125 43.40234375 10.015625 C57.34283778 17.50106756 70.23643624 26.0229978 82.375 36.1875 C83.15677612 36.84190063 83.15677612 36.84190063 83.9543457 37.50952148 C87.04410034 40.17172421 89.61083413 42.99470019 92.0625 46.25 C90.82215588 47.57162881 89.56981374 48.88200453 88.3125 50.1875 C87.61640625 50.91839844 86.9203125 51.64929688 86.203125 52.40234375 C83.96404718 54.33497844 82.96948393 54.9897693 80.0625 55.25 C78.26660156 54.00585938 78.26660156 54.00585938 76.453125 52.09375 C75.78023437 51.40023437 75.10734375 50.70671875 74.4140625 49.9921875 C73.72054687 49.25226562 73.02703125 48.51234375 72.3125 47.75 C67.09947399 42.29911729 61.81938989 37.12626975 56.0625 32.25 C55.47629883 31.74162598 54.89009766 31.23325195 54.28613281 30.70947266 C40.99763658 19.13515133 40.99763658 19.13515133 25.0625 12.25 C19.81594764 13.39363051 16.25903768 15.98957212 12.0625 19.25 C11.05574219 19.94738281 10.04898438 20.64476562 9.01171875 21.36328125 C2.49525525 25.98650503 -3.37705963 31.22754893 -9.1875 36.6875 C-11.47465064 38.81870855 -13.79919616 40.85986864 -16.1875 42.875 C-19.9404192 46.073954 -22.94952993 49.74539831 -25.98046875 53.625 C-27.9375 55.25 -27.9375 55.25 -30.40625 55.25390625 C-33.44462606 54.0488713 -35.02248626 52.56603162 -37.25 50.1875 C-37.94738281 49.45402344 -38.64476562 48.72054687 -39.36328125 47.96484375 C-39.88277344 47.39894531 -40.40226563 46.83304688 -40.9375 46.25 C-36.937528 41.29173017 -32.70961329 37.05532951 -27.75 33.0625 C-26.72483276 32.23383423 -26.72483276 32.23383423 -25.67895508 31.38842773 C-14.3402839 22.42382669 -1.79399178 14.83714635 11.0625 8.25 C-2.77786768 8.58682311 -12.58079391 15.08133777 -23.29736328 23.04394531 C-41.94989045 36.75985543 -63.1030972 43.13455314 -86.16992188 39.94091797 C-101.41898243 37.11688428 -115.60270517 28.6963931 -124.9375 16.25 C-124.2775 15.92 -123.6175 15.59 -122.9375 15.25 C-120.41004918 16.29141716 -117.96626109 17.39138622 -115.5 18.5625 C-109.04013942 21.50392114 -103.0705628 23.62973367 -95.9375 24.25 C-95.22980469 24.31960938 -94.52210938 24.38921875 -93.79296875 24.4609375 C-78.41410113 25.20277527 -63.78425616 18.46156622 -49.89453125 12.77734375 C-33.44421143 6.06951871 -18.01356406 0.09204792 0 0 Z " fill="#1B191E" transform="translate(569.9375,664.75)"/>
<path d="M0 0 C19.14 0 38.28 0 58 0 C58 20.79 58 41.58 58 63 C52.92625 62.855625 47.8525 62.71125 42.625 62.5625 C41.04541504 62.51939697 39.46583008 62.47629395 37.83837891 62.43188477 C33.89048172 62.31383221 29.94614828 62.16623339 26 62 C24.95553711 61.96116699 23.91107422 61.92233398 22.83496094 61.88232422 C21.50513184 61.79942139 21.50513184 61.79942139 20.1484375 61.71484375 C19.40513184 61.67351318 18.66182617 61.63218262 17.89599609 61.58959961 C15.26921164 60.77274609 14.44013574 59.26958818 13 57 C9.70924004 57.37904208 9.70924004 57.37904208 7 59 C4.30917128 58.82364548 1.67148554 58.38164079 -1 58 C-1.9101119 54.9891035 -2.04537125 52.61935536 -1.6875 49.5 C-1.60886719 48.7471875 -1.53023437 47.994375 -1.44921875 47.21875 C-0.97303785 44.86683042 -0.08514973 43.12636628 1 41 C1.16750414 38.33290931 1.16750414 38.33290931 1 36 C-0.134375 35.855625 -1.26875 35.71125 -2.4375 35.5625 C-6 35 -6 35 -7 34 C-7.07179964 32.48071962 -7.08392007 30.95832518 -7.0625 29.4375 C-7.05347656 28.61121094 -7.04445313 27.78492188 -7.03515625 26.93359375 C-7.02355469 26.29550781 -7.01195312 25.65742188 -7 25 C-6.30132813 24.75765625 -5.60265625 24.5153125 -4.8828125 24.265625 C-3.97273437 23.93046875 -3.06265625 23.5953125 -2.125 23.25 C-0.76761719 22.76273437 -0.76761719 22.76273437 0.6171875 22.265625 C3.41785157 20.77805916 4.03854536 19.98529009 5 17 C5.42677937 14.38908347 5.42677937 14.38908347 5.4375 11.625 C5.47746094 10.70976562 5.51742187 9.79453125 5.55859375 8.8515625 C5.05980073 5.09461476 5.05980073 5.09461476 0 0 Z " fill="#24346E" transform="translate(639,420)"/>
<path d="M0 0 C12.20648477 -1.06658605 12.20648477 -1.06658605 16.20703125 1.3125 C17.93493423 3.12538181 19.45363009 5.03118819 21 7 C22.24593488 8.13218711 23.518143 9.23600507 24.8125 10.3125 C28.00819551 13.04727789 30.90619538 15.96033646 33.8125 19 C45.8899269 31.16976197 60.6808706 36.33485049 77 40 C74.40723149 42.59276851 72.80003888 42.56087801 69.1875 43.1875 C62.50334583 44.40752865 55.92939342 45.9723006 49.3359375 47.61035156 C22.1007188 54.37062097 -4.78611697 58.97499465 -30.10693359 44.17529297 C-42.07473933 36.74519021 -52.75663425 27.17790866 -60 15 C-60 14.34 -60 13.68 -60 13 C-56.95375927 14.35980987 -54.92472571 15.9140797 -52.5625 18.25 C-36.56972585 32.31311584 -12.41064112 32.58022314 7.75 33.75 C9.73054737 33.87506327 11.71101723 34.00136019 13.69140625 34.12890625 C18.4601693 34.43341677 23.22964993 34.72150499 28 35 C27.32453125 34.53964355 26.6490625 34.07928711 25.953125 33.60498047 C25.06109375 32.99025879 24.1690625 32.37553711 23.25 31.7421875 C22.36828125 31.13745605 21.4865625 30.53272461 20.578125 29.90966797 C11.32476471 23.05552174 4.94120412 12.27434943 0 2 C0 1.34 0 0.68 0 0 Z " fill="#1B191E" transform="translate(464,625)"/>
<path d="M0 0 C1.27617188 0.02320313 2.55234375 0.04640625 3.8671875 0.0703125 C5.78917969 0.09738281 5.78917969 0.09738281 7.75 0.125 C9.23113281 0.15980469 9.23113281 0.15980469 10.7421875 0.1953125 C7.10998828 13.00779546 -2.11531819 25.80803765 -13.39404297 32.80004883 C-14.11687469 33.24899002 -14.83970642 33.69793121 -15.58444214 34.16047668 C-16.13665436 34.5019725 -16.68886658 34.84346832 -17.2578125 35.1953125 C-11.49894162 34.85910723 -5.74161292 34.50406163 0.01513672 34.13330078 C1.96372785 34.01025542 3.9126226 33.89190628 5.86181641 33.77880859 C16.21965657 33.17455669 26.41397167 32.31666473 36.609375 30.33203125 C37.40096008 30.18123108 38.19254517 30.03043091 39.00811768 29.87506104 C49.72808065 27.62202768 59.63126759 22.54356382 67.7421875 15.1953125 C68.0721875 14.5353125 68.4021875 13.8753125 68.7421875 13.1953125 C69.4021875 13.1953125 70.0621875 13.1953125 70.7421875 13.1953125 C68.63590611 19.18438534 64.83417244 23.42987028 60.7421875 28.1953125 C60.15566406 28.87980469 59.56914063 29.56429687 58.96484375 30.26953125 C45.33232571 44.97594568 26.85616929 52.92635816 7.12109375 54.48046875 C-13.74063703 55.00601071 -33.85448779 49.27085417 -53.85351562 44.06201172 C-57.97169197 43.01356608 -62.10144681 42.07876908 -66.2578125 41.1953125 C-62.70724482 39.32365817 -59.36771008 38.46423484 -55.4453125 37.5703125 C-41.1330216 33.94701441 -30.52841511 26.57484574 -20.2578125 16.1953125 C-19.59265625 15.53144531 -18.9275 14.86757813 -18.2421875 14.18359375 C-17.12949354 13.06839372 -16.02102287 11.94895453 -14.91796875 10.82421875 C-12.36788943 8.32214092 -9.66683631 6.002274 -6.95703125 3.67578125 C-2.9404609 0.17628662 -2.9404609 0.17628662 0 0 Z " fill="#24356F" transform="translate(716.2578125,624.8046875)"/>
<path d="M0 0 C0.66 0.33 1.32 0.66 2 1 C1.38125 2.11375 0.7625 3.2275 0.125 4.375 C-5.84842864 16.42776913 -4.22992366 29.48204387 -2.5 42.375 C-1.03663723 53.97982654 -0.66519022 65.31885866 -1 77 C-0.67128906 76.26136719 -0.34257812 75.52273438 -0.00390625 74.76171875 C6.53190356 60.82220027 16.57985632 50.67912702 28.3671875 41.0703125 C33.3498892 36.9901379 36.25155733 32.82722702 39 27 C39.33 27 39.66 27 40 27 C38.8600957 47.8982455 28.40248766 64.35371451 16.51660156 80.87890625 C7.62430388 93.31552607 0.58347071 104.93776946 -3 120 C-3.66 120 -4.32 120 -5 120 C-5.08636719 119.2471875 -5.17273438 118.494375 -5.26171875 117.71875 C-6.38702404 109.21185494 -8.5784813 101.32910002 -11.26611328 93.22119141 C-12.60214829 89.1775299 -13.89426482 85.12000544 -15.1875 81.0625 C-15.43725586 80.29405762 -15.68701172 79.52561523 -15.94433594 78.73388672 C-22.4352545 58.45086118 -21.93123401 38.15381772 -12.8125 18.75 C-9.21329825 11.94281408 -4.82727042 5.97662053 0 0 Z M-3 80 C-2 83 -2 83 -2 83 Z " fill="#1B191E" transform="translate(379,385)"/>
<path d="M0 0 C14.52660504 13.20600458 20.55447053 31.61448011 22.08203125 50.67578125 C22.17860654 64.46017952 18.1339498 77.0145944 13.875 89.9375 C13.30481547 91.69949028 12.73579754 93.46185851 12.16796875 95.22460938 C10.79201842 99.48753757 9.40051459 103.74508197 8 108 C7.34 108 6.68 108 6 108 C4.64648438 106.4621582 4.64648438 106.4621582 3.09375 104.30078125 C2.51979492 103.51018311 1.94583984 102.71958496 1.35449219 101.9050293 C0.74250977 101.04949463 0.13052734 100.19395996 -0.5 99.3125 C-1.77491361 97.55386917 -3.05095956 95.79605867 -4.328125 94.0390625 C-4.95525391 93.17442383 -5.58238281 92.30978516 -6.22851562 91.41894531 C-8.5149028 88.29690505 -10.87159014 85.24004514 -13.25 82.1875 C-26.43241322 65.11768651 -36.73393337 48.92173153 -39 27 C-36.69435906 29.13288398 -35.24008661 31.22173776 -33.6875 33.9375 C-29.50469225 40.37420165 -23.46682565 44.79152224 -17.62109375 49.64111328 C-8.56827074 57.22966944 -2.12439793 66.37278707 3 77 C2.98428955 75.85337891 2.98428955 75.85337891 2.96826172 74.68359375 C2.66713428 49.34314816 2.66713428 49.34314816 4.5390625 36.66015625 C6.01524411 24.9382735 5.44464868 15.04914672 1 4 C0.64102174 2.67334123 0.29714875 1.34186121 0 0 Z " fill="#1B191E" transform="translate(817,385)"/>
<path d="M0 0 C0.99 0.33 1.98 0.66 3 1 C2.45464531 5.94606405 0.85312602 9.86307806 -1.5 14.1875 C-1.85602295 14.84459961 -2.2120459 15.50169922 -2.57885742 16.17871094 C-6.04954837 22.38950067 -10.18799157 27.75694846 -15 33 C-15.83273437 33.91394531 -16.66546875 34.82789063 -17.5234375 35.76953125 C-33.7181276 52.74783539 -51.23946972 59.82957664 -73.94824219 64.37353516 C-79.02603786 65.41590505 -84.07417393 66.58504322 -89.125 67.75 C-99.69836521 70.17894108 -99.69836521 70.17894108 -104 71 C-102.68038168 68.01484399 -101.33545449 66.24213526 -98.875 64.125 C-92.12295099 57.61308663 -88.1390493 48.2780986 -84 40 C-78.72 40 -73.44 40 -68 40 C-69.70604525 44.26511313 -71.09787714 46.61418999 -74 50 C-72.64479001 49.10574579 -71.29089839 48.20949359 -69.9375 47.3125 C-69.18339844 46.81363281 -68.42929687 46.31476562 -67.65234375 45.80078125 C-66.21459528 44.82463685 -64.78224233 43.83919889 -63.38427734 42.80688477 C-59.3689563 39.84469802 -55.25596153 37.46329497 -50.75 35.3125 C-49.34431835 34.62258671 -47.93940371 33.93110901 -46.53515625 33.23828125 C-45.80055176 32.87686035 -45.06594727 32.51543945 -44.30908203 32.14306641 C-32.95314229 26.52152804 -21.91661106 20.96808398 -12 13 C-11.15824219 12.36320313 -10.31648437 11.72640625 -9.44921875 11.0703125 C-6.96666562 8.97182261 -5.1340353 6.8453804 -3.1875 4.25 C-2.28064453 3.05117188 -2.28064453 3.05117188 -1.35546875 1.828125 C-0.90816406 1.22484375 -0.46085938 0.6215625 0 0 Z " fill="#1B191E" transform="translate(818,585)"/>
<path d="M0 0 C-1.299375 0.928125 -1.299375 0.928125 -2.625 1.875 C-12.91181591 10.51204355 -16.11416207 25.26023751 -18.6875 37.8125 C-18.89955078 38.80958984 -19.11160156 39.80667969 -19.33007812 40.83398438 C-20.32295662 45.54154392 -21.26519155 50.2439321 -22 55 C-21.36835938 54.32195312 -20.73671875 53.64390625 -20.0859375 52.9453125 C-15.01919869 47.67415195 -9.96556767 43.02680897 -3.9375 38.875 C6.3518488 31.78550716 16.86047403 23.70669805 22 12 C22.33 12 22.66 12 23 12 C23.90630706 25.89670819 16.24165601 38.01545288 7.5390625 48.24609375 C1.07415947 55.25802704 -5.96144057 61.29399476 -13.625 66.9375 C-22.21919188 73.31371205 -29.19269469 81.38538937 -34 91 C-34.33 91 -34.66 91 -35 91 C-38.27693408 30.80376683 -38.27693408 30.80376683 -24 12 C-18.44331729 6.04125676 -8.81558001 -2.93852667 0 0 Z M-24 56 C-23 58 -23 58 -23 58 Z " fill="#1B191E" transform="translate(417,355)"/>
<path d="M0 0 C9.77358963 0.63740802 17.34046506 5.36470924 23.9609375 12.41796875 C33.90798106 25.01374613 36.17851622 40.42450489 36.09765625 55.96484375 C36.0962413 56.99815323 36.09482635 58.03146271 36.09336853 59.09608459 C36.08779839 62.3765866 36.07525141 65.65701883 36.0625 68.9375 C36.05748114 71.16992089 36.05291891 73.40234285 36.04882812 75.63476562 C36.03783875 81.08986731 36.0211305 86.54492867 36 92 C33.02513561 89.08990715 30.6188956 86.17608867 28.25 82.75 C22.1444371 74.28751025 15.26632193 68.31620887 6.88671875 62.14453125 C-6.0226042 52.55424938 -18.35851413 39.11493372 -22 23 C-22.47617187 19.67146523 -22.79683311 16.35575649 -23 13 C-19.98767825 15.79968727 -18.0379962 18.97290271 -15.890625 22.453125 C-10.99902812 29.04263154 -4.88557411 33.74131324 1.8125 38.375 C9.43672365 43.75630153 16.39160277 49.39160277 23 56 C21.57242906 49.90109973 20.12383884 43.80756003 18.65380859 37.71875 C18.25388644 36.05574287 17.85750299 34.39187343 17.46728516 32.7265625 C14.6763535 20.8458993 11.53160155 9.89791805 1.5390625 2.20703125 C1.03117188 1.80871094 0.52328125 1.41039062 0 1 C0 0.67 0 0.34 0 0 Z " fill="#23316B" transform="translate(780,354)"/>
<path d="M0 0 C13.06586272 -1.60208126 20.80009127 1.8226933 31.78173828 8.67041016 C35.22603437 10.73486498 38.81881379 12.45369952 42.4375 14.1875 C51.52620307 18.63123653 59.84670863 24.02091966 68 30 C67.566875 29.44570313 67.13375 28.89140625 66.6875 28.3203125 C66.130625 27.59585938 65.57375 26.87140625 65 26.125 C64.443125 25.40570312 63.88625 24.68640625 63.3125 23.9453125 C62 22 62 22 62 20 C67.28 20 72.56 20 78 20 C78.52207031 21.08796875 79.04414063 22.1759375 79.58203125 23.296875 C84.53750317 33.29791832 89.98981441 41.22937137 98 49 C97.505 49.99 97.505 49.99 97 51 C95.7625 50.69707031 94.525 50.39414062 93.25 50.08203125 C91.50023415 49.65788705 89.7502121 49.23479902 88 48.8125 C87.06534912 48.58691406 86.13069824 48.36132812 85.16772461 48.12890625 C79.01594288 46.66407521 72.84966388 45.34446311 66.64697266 44.11425781 C39.18881753 38.64609901 17.27095035 26.69972159 1.1796875 2.93359375 C0 1 0 1 0 0 Z " fill="#1B191E" transform="translate(379,605)"/>
<path d="M0 0 C1.77029341 1.6043284 3.36733447 3.25874864 5 5 C5.69738281 5.65097656 6.39476562 6.30195312 7.11328125 6.97265625 C13.73621028 14.20729453 13.8804808 20.85863874 13.6887207 30.34350586 C13.31029628 38.32689349 11.90422895 45.51901739 9 53 C9.4125 52.31035156 9.825 51.62070312 10.25 50.91015625 C14.28893323 44.33787428 18.68677895 38.58923253 24 33 C28.09457279 34.3648576 29.71667285 37.21754285 32.1875 40.5625 C32.65091797 41.17802734 33.11433594 41.79355469 33.59179688 42.42773438 C34.73423225 43.94705565 35.86796157 45.47291627 37 47 C33.05313171 56.20299754 22.16111201 61.82531196 14.125 67.0625 C12.60712891 68.06506836 12.60712891 68.06506836 11.05859375 69.08789062 C8.04733972 71.07161687 5.02541523 73.03795382 2 75 C0.96456055 75.67788574 -0.07087891 76.35577148 -1.13769531 77.05419922 C-2.12608398 77.69502441 -3.11447266 78.33584961 -4.1328125 78.99609375 C-5.0211377 79.57415771 -5.90946289 80.15222168 -6.82470703 80.74780273 C-9 82 -9 82 -11 82 C-11.48486239 75.64291528 -10.91252654 70.19084437 -9.1484375 64.05859375 C-6.29267024 53.40086652 -5.433589 42.51489161 -4.375 31.5625 C-4.07011465 28.48098018 -3.76174739 25.39989185 -3.44741821 22.31932068 C-3.25440192 20.42104471 -3.06696377 18.52218941 -2.88632202 16.62269592 C-2.3178634 10.94978406 -1.33620148 5.54407636 0 0 Z " fill="#243873" transform="translate(778,531)"/>
<path d="M0 0 C4.29 0 8.58 0 13 0 C15.7104426 6.37014716 18.4162346 12.74224124 21.11767578 19.11621094 C22.03793816 21.28570267 22.95948436 23.45465028 23.88232422 25.62304688 C25.20615607 28.73426502 26.52540615 31.84739063 27.84375 34.9609375 C28.46715271 36.42193375 28.46715271 36.42193375 29.10314941 37.91244507 C29.4835437 38.81322784 29.86393799 39.71401062 30.25585938 40.64208984 C30.59339233 41.43706879 30.93092529 42.23204773 31.27868652 43.05111694 C32 45 32 45 32 47 C28.04 47 24.08 47 20 47 C17 41.375 17 41.375 17 38 C6.605 38.495 6.605 38.495 -4 39 C-5.32 41.64 -6.64 44.28 -8 47 C-11.96 47 -15.92 47 -20 47 C-13.49407951 31.26120936 -6.83835002 15.59725791 0 0 Z M6 13 C5.18082358 14.72601379 4.36993984 16.4559647 3.5625 18.1875 C3.11003906 19.15042969 2.65757812 20.11335937 2.19140625 21.10546875 C0.77884331 24.27431049 0.77884331 24.27431049 0 29 C4.29 29 8.58 29 13 29 C11.02 23.72 9.04 18.44 7 13 C6.67 13 6.34 13 6 13 Z " fill="#232D66" transform="translate(426,736)"/>
<path d="M0 0 C4.29 0 8.58 0 13 0 C15.7104426 6.37014716 18.4162346 12.74224124 21.11767578 19.11621094 C22.03793816 21.28570267 22.95948436 23.45465028 23.88232422 25.62304688 C25.20615607 28.73426502 26.52540615 31.84739063 27.84375 34.9609375 C28.46715271 36.42193375 28.46715271 36.42193375 29.10314941 37.91244507 C29.4835437 38.81322784 29.86393799 39.71401062 30.25585938 40.64208984 C30.59339233 41.43706879 30.93092529 42.23204773 31.27868652 43.05111694 C32 45 32 45 32 47 C28.04 47 24.08 47 20 47 C17 41.375 17 41.375 17 38 C6.605 38.495 6.605 38.495 -4 39 C-5.32 41.64 -6.64 44.28 -8 47 C-11.96 47 -15.92 47 -20 47 C-13.49407951 31.26120936 -6.83835002 15.59725791 0 0 Z M6 13 C5.18082358 14.72601379 4.36993984 16.4559647 3.5625 18.1875 C3.11003906 19.15042969 2.65757812 20.11335937 2.19140625 21.10546875 C0.77884331 24.27431049 0.77884331 24.27431049 0 29 C4.29 29 8.58 29 13 29 C11.02 23.72 9.04 18.44 7 13 C6.67 13 6.34 13 6 13 Z " fill="#232D66" transform="translate(297,736)"/>
<path d="M0 0 C-0.66241789 3.55079859 -1.57481771 6.67457466 -3 10 C-6.32021409 9.4644816 -9.29666844 8.53689546 -12.4375 7.375 C-16.31175904 6.03391033 -18.97328914 5.86426104 -23 7 C-23.11330993 9.42484899 -23.11330993 9.42484899 -22 12 C-19.35839915 13.28159858 -17.02581848 14.20483074 -14.25 15.0625 C-9.10044019 16.71573098 -4.99684837 18.16151732 -1 22 C1.36460451 26.72920902 1.40775222 30.99005829 0 36 C-2.12363323 39.67551905 -4.59924361 41.98252885 -8.625 43.4921875 C-17.88898362 45.47297347 -27.77080492 44.92105866 -36 40 C-37.765625 38.36328125 -37.765625 38.36328125 -39 37 C-37.94124926 33.59687262 -36.99097846 30.98646769 -35 28 C-32.49624722 28.98457182 -30.01950198 29.99112691 -27.5703125 31.10546875 C-22.16217607 33.49852593 -18.7690206 34.5049619 -13 33 C-12.67 32.01 -12.34 31.02 -12 30 C-15.11259215 25.91019868 -20.32454956 24.98887104 -25.01953125 23.51367188 C-30.30522149 21.69763864 -32.92523607 19.72174731 -36 15 C-37.184293 10.17455771 -36.47221339 6.03886945 -34.4375 1.5625 C-25.60424982 -7.72373736 -10.46540061 -5.51588173 0 0 Z " fill="#232D66" transform="translate(497,739)"/>
<path d="M0 0 C-0.66241789 3.55079859 -1.57481771 6.67457466 -3 10 C-6.32021409 9.4644816 -9.29666844 8.53689546 -12.4375 7.375 C-16.31175904 6.03391033 -18.97328914 5.86426104 -23 7 C-23.11330993 9.42484899 -23.11330993 9.42484899 -22 12 C-19.35839915 13.28159858 -17.02581848 14.20483074 -14.25 15.0625 C-9.10044019 16.71573098 -4.99684837 18.16151732 -1 22 C1.36460451 26.72920902 1.40775222 30.99005829 0 36 C-2.12363323 39.67551905 -4.59924361 41.98252885 -8.625 43.4921875 C-17.88898362 45.47297347 -27.77080492 44.92105866 -36 40 C-37.765625 38.36328125 -37.765625 38.36328125 -39 37 C-37.94124926 33.59687262 -36.99097846 30.98646769 -35 28 C-32.49624722 28.98457182 -30.01950198 29.99112691 -27.5703125 31.10546875 C-22.16217607 33.49852593 -18.7690206 34.5049619 -13 33 C-12.67 32.01 -12.34 31.02 -12 30 C-15.11259215 25.91019868 -20.32454956 24.98887104 -25.01953125 23.51367188 C-30.30522149 21.69763864 -32.92523607 19.72174731 -36 15 C-37.184293 10.17455771 -36.47221339 6.03886945 -34.4375 1.5625 C-25.60424982 -7.72373736 -10.46540061 -5.51588173 0 0 Z " fill="#232D66" transform="translate(404,739)"/>
<path d="M0 0 C16.37959046 2.86278462 35.85654933 13.8419537 46 27 C53.55297255 38.77221928 57.6921958 52.51303486 61 66 C54.9032223 62.21011116 49.48004175 57.6214521 44 53 C43.13632812 52.27425781 42.27265625 51.54851562 41.3828125 50.80078125 C32.40737966 43.01368453 25.62991054 34.10704258 19.171875 24.1875 C13.38825469 15.69930904 6.78586163 7.70286995 0 0 Z " fill="#1B191E" transform="translate(734,330)"/>
<path d="M0 0 C-0.57105469 0.58523438 -1.14210938 1.17046875 -1.73046875 1.7734375 C-10.57858716 11.14203347 -17.89887679 21.57188857 -25.18359375 32.1796875 C-34.39444532 45.3927594 -46.6403592 56.0935728 -60 65 C-57.2172771 46.49438305 -50.2218595 26.93730599 -34.91748047 15.30761719 C-7.19508779 -3.5975439 -7.19508779 -3.5975439 0 0 Z " fill="#1B191E" transform="translate(463,331)"/>
<path d="M0 0 C2.86270148 1.78969456 4.08126458 2.83820567 5.76171875 5.7265625 C6.10229492 8.84277344 6.10229492 8.84277344 6.0546875 12.4609375 C6.04018555 14.40419922 6.04018555 14.40419922 6.02539062 16.38671875 C6.00032658 17.75000604 5.97493177 19.11328729 5.94921875 20.4765625 C5.93416393 21.85545434 5.92047692 23.23436185 5.90820312 24.61328125 C5.87283784 27.98477165 5.82347779 31.35546904 5.76171875 34.7265625 C1.42838542 34.7265625 -2.90494792 34.7265625 -7.23828125 34.7265625 C-8.72328125 35.2215625 -8.72328125 35.2215625 -10.23828125 35.7265625 C-15.15266171 36.12214731 -19.69589799 36.35610669 -24.30078125 34.4765625 C-26.98772932 32.04964166 -28.05589257 29.9072892 -28.609375 26.32421875 C-28.78976193 19.43768233 -28.78976193 19.43768233 -25.86328125 15.6640625 C-21.63226901 12.54117251 -18.23608154 12.4339164 -13.11328125 12.1640625 C-12.35917969 12.12087891 -11.60507812 12.07769531 -10.828125 12.03320312 C-8.96506237 11.9270793 -7.10169601 11.82631249 -5.23828125 11.7265625 C-6.90980593 8.54776257 -6.90980593 8.54776257 -9.73828125 7.9140625 C-14.44972051 7.66166397 -18.67269726 8.63479241 -23.23828125 9.7265625 C-26.23828125 5.1015625 -26.23828125 5.1015625 -26.23828125 1.7265625 C-17.9786276 -1.69122522 -8.55006127 -3.36226776 0 0 Z M-18.23828125 20.7265625 C-18.40515573 23.14302032 -18.40515573 23.14302032 -18.23828125 25.7265625 C-16.31185517 28.05860961 -16.31185517 28.05860961 -12.92578125 28.1640625 C-9.11720432 28.03023949 -9.11720432 28.03023949 -6.30078125 25.4765625 C-3.83828125 22.76614583 -3.83828125 22.76614583 -4.23828125 18.7265625 C-5.82122907 18.67218643 -7.40472381 18.63359979 -8.98828125 18.6015625 C-9.87 18.57835937 -10.75171875 18.55515625 -11.66015625 18.53125 C-14.35186705 18.73516748 -15.93733099 19.36104529 -18.23828125 20.7265625 Z " fill="#040707" transform="translate(885.23828125,748.2734375)"/>
<path d="M0 0 C2.86270148 1.78969456 4.08126458 2.83820567 5.76171875 5.7265625 C6.10229492 8.84277344 6.10229492 8.84277344 6.0546875 12.4609375 C6.04018555 14.40419922 6.04018555 14.40419922 6.02539062 16.38671875 C6.00032658 17.75000604 5.97493177 19.11328729 5.94921875 20.4765625 C5.93416393 21.85545434 5.92047692 23.23436185 5.90820312 24.61328125 C5.87283784 27.98477165 5.82347779 31.35546904 5.76171875 34.7265625 C1.42838542 34.7265625 -2.90494792 34.7265625 -7.23828125 34.7265625 C-8.72328125 35.2215625 -8.72328125 35.2215625 -10.23828125 35.7265625 C-15.15266171 36.12214731 -19.69589799 36.35610669 -24.30078125 34.4765625 C-26.98772932 32.04964166 -28.05589257 29.9072892 -28.609375 26.32421875 C-28.78976193 19.43768233 -28.78976193 19.43768233 -25.86328125 15.6640625 C-21.63226901 12.54117251 -18.23608154 12.4339164 -13.11328125 12.1640625 C-12.35917969 12.12087891 -11.60507812 12.07769531 -10.828125 12.03320312 C-8.96506237 11.9270793 -7.10169601 11.82631249 -5.23828125 11.7265625 C-6.90980593 8.54776257 -6.90980593 8.54776257 -9.73828125 7.9140625 C-14.44972051 7.66166397 -18.67269726 8.63479241 -23.23828125 9.7265625 C-26.23828125 5.1015625 -26.23828125 5.1015625 -26.23828125 1.7265625 C-17.9786276 -1.69122522 -8.55006127 -3.36226776 0 0 Z M-18.23828125 20.7265625 C-18.40515573 23.14302032 -18.40515573 23.14302032 -18.23828125 25.7265625 C-16.31185517 28.05860961 -16.31185517 28.05860961 -12.92578125 28.1640625 C-9.11720432 28.03023949 -9.11720432 28.03023949 -6.30078125 25.4765625 C-3.83828125 22.76614583 -3.83828125 22.76614583 -4.23828125 18.7265625 C-5.82122907 18.67218643 -7.40472381 18.63359979 -8.98828125 18.6015625 C-9.87 18.57835937 -10.75171875 18.55515625 -11.66015625 18.53125 C-14.35186705 18.73516748 -15.93733099 19.36104529 -18.23828125 20.7265625 Z " fill="#040707" transform="translate(729.23828125,748.2734375)"/>
<path d="M0 0 C1.19367187 -0.01675781 2.38734375 -0.03351562 3.6171875 -0.05078125 C8.95136696 0.50164491 12.113805 2.301305 15.875 6.0625 C19.73645002 11.64015003 20.65019279 16.5720387 19.65234375 23.17578125 C18.43895329 28.09225964 15.63106896 31.20902387 11.6875 34.1875 C6.15825503 37.38102653 0.30696275 37.14602307 -5.875 36.3125 C-11.27163855 34.70970688 -14.8055348 32.10086571 -17.875 27.3125 C-19.84525457 21.4017363 -19.67962101 14.68401456 -17.6875 8.8125 C-12.9604116 2.29237807 -7.86345729 0.02536599 0 0 Z M-5.75 11.3125 C-8.11714679 14.65435429 -8.63591862 16.37290455 -8.35546875 20.375 C-7.48602978 23.8810303 -5.79463173 25.32466563 -2.875 27.3125 C1.12307408 27.94377485 3.13235985 27.99167484 6.5 25.6875 C8.52437804 22.72879363 9.05321217 20.90189134 9.125 17.3125 C7.59626129 13.33777937 6.69719503 11.69396335 3.125 9.3125 C-0.87300164 8.70410845 -2.39701252 8.97998697 -5.75 11.3125 Z " fill="#040707" transform="translate(796.875,746.6875)"/>
<path d="M0 0 C3.63 0 7.26 0 11 0 C11.33 0.99 11.66 1.98 12 3 C12.598125 2.505 13.19625 2.01 13.8125 1.5 C18.51868869 -0.71467703 22.88364116 -0.68268131 28 0 C32.13496705 2.03121188 34.37342091 3.71233382 36 8 C36.22705078 11.02441406 36.22705078 11.02441406 36.1953125 14.515625 C36.18886719 15.76601563 36.18242188 17.01640625 36.17578125 18.3046875 C36.15902344 19.60664062 36.14226563 20.90859375 36.125 22.25 C36.11597656 23.56742188 36.10695313 24.88484375 36.09765625 26.2421875 C36.07408533 29.49497462 36.04118022 32.74739589 36 36 C32.37 36 28.74 36 25 36 C24.95101562 34.36289062 24.90203125 32.72578125 24.8515625 31.0390625 C24.77654361 28.901024 24.7009954 26.76300402 24.625 24.625 C24.5940625 23.54476562 24.563125 22.46453125 24.53125 21.3515625 C24.49257813 20.3203125 24.45390625 19.2890625 24.4140625 18.2265625 C24.36693115 16.79691162 24.36693115 16.79691162 24.31884766 15.33837891 C24.21444204 12.81104824 24.21444204 12.81104824 22 11 C17.40150024 10.4585228 17.40150024 10.4585228 13.30932617 12.20043945 C11.57742072 14.58080028 11.57291963 16.1769809 11.48828125 19.10546875 C11.45283203 20.08837891 11.41738281 21.07128906 11.38085938 22.08398438 C11.34702148 23.62022461 11.34702148 23.62022461 11.3125 25.1875 C11.27833984 26.22326172 11.24417969 27.25902344 11.20898438 28.32617188 C11.12648241 30.88373264 11.06156544 33.44184963 11 36 C7.37 36 3.74 36 0 36 C0 24.12 0 12.24 0 0 Z " fill="#040707" transform="translate(819,747)"/>
<path d="M0 0 C3.63 0 7.26 0 11 0 C11.33 0.99 11.66 1.98 12 3 C12.598125 2.505 13.19625 2.01 13.8125 1.5 C18.51868869 -0.71467703 22.88364116 -0.68268131 28 0 C32.13496705 2.03121188 34.37342091 3.71233382 36 8 C36.22705078 11.02441406 36.22705078 11.02441406 36.1953125 14.515625 C36.18886719 15.76601563 36.18242188 17.01640625 36.17578125 18.3046875 C36.15902344 19.60664062 36.14226563 20.90859375 36.125 22.25 C36.11597656 23.56742188 36.10695313 24.88484375 36.09765625 26.2421875 C36.07408533 29.49497462 36.04118022 32.74739589 36 36 C32.37 36 28.74 36 25 36 C24.95101562 34.36289062 24.90203125 32.72578125 24.8515625 31.0390625 C24.77654361 28.901024 24.7009954 26.76300402 24.625 24.625 C24.5940625 23.54476562 24.563125 22.46453125 24.53125 21.3515625 C24.49257813 20.3203125 24.45390625 19.2890625 24.4140625 18.2265625 C24.36693115 16.79691162 24.36693115 16.79691162 24.31884766 15.33837891 C24.21444204 12.81104824 24.21444204 12.81104824 22 11 C17.40150024 10.4585228 17.40150024 10.4585228 13.30932617 12.20043945 C11.57742072 14.58080028 11.57291963 16.1769809 11.48828125 19.10546875 C11.45283203 20.08837891 11.41738281 21.07128906 11.38085938 22.08398438 C11.34702148 23.62022461 11.34702148 23.62022461 11.3125 25.1875 C11.27833984 26.22326172 11.24417969 27.25902344 11.20898438 28.32617188 C11.12648241 30.88373264 11.06156544 33.44184963 11 36 C7.37 36 3.74 36 0 36 C0 24.12 0 12.24 0 0 Z " fill="#040707" transform="translate(664,747)"/>
<path d="M0 0 C3.63 0 7.26 0 11 0 C11.33 0.99 11.66 1.98 12 3 C12.598125 2.505 13.19625 2.01 13.8125 1.5 C18.51868869 -0.71467703 22.88364116 -0.68268131 28 0 C32.13496705 2.03121188 34.37342091 3.71233382 36 8 C36.22705078 11.02441406 36.22705078 11.02441406 36.1953125 14.515625 C36.18886719 15.76601563 36.18242188 17.01640625 36.17578125 18.3046875 C36.15902344 19.60664062 36.14226563 20.90859375 36.125 22.25 C36.11597656 23.56742188 36.10695313 24.88484375 36.09765625 26.2421875 C36.07408533 29.49497462 36.04118022 32.74739589 36 36 C32.37 36 28.74 36 25 36 C24.95101562 34.36289062 24.90203125 32.72578125 24.8515625 31.0390625 C24.77654361 28.901024 24.7009954 26.76300402 24.625 24.625 C24.5940625 23.54476562 24.563125 22.46453125 24.53125 21.3515625 C24.49257813 20.3203125 24.45390625 19.2890625 24.4140625 18.2265625 C24.36693115 16.79691162 24.36693115 16.79691162 24.31884766 15.33837891 C24.21444204 12.81104824 24.21444204 12.81104824 22 11 C17.40150024 10.4585228 17.40150024 10.4585228 13.30932617 12.20043945 C11.57742072 14.58080028 11.57291963 16.1769809 11.48828125 19.10546875 C11.45283203 20.08837891 11.41738281 21.07128906 11.38085938 22.08398438 C11.34702148 23.62022461 11.34702148 23.62022461 11.3125 25.1875 C11.27833984 26.22326172 11.24417969 27.25902344 11.20898438 28.32617188 C11.12648241 30.88373264 11.06156544 33.44184963 11 36 C7.37 36 3.74 36 0 36 C0 24.12 0 12.24 0 0 Z " fill="#040707" transform="translate(539,747)"/>
<path d="M0 0 C4.62432359 2.3574983 6.83299523 5.64582817 8.73046875 10.3515625 C8.73046875 13.6515625 8.73046875 16.9515625 8.73046875 20.3515625 C0.48046875 20.3515625 -7.76953125 20.3515625 -16.26953125 20.3515625 C-12.97116858 25.35259077 -12.97116858 25.35259077 -9.58203125 26.3515625 C-5.0885244 26.3515625 -1.41777955 24.98320683 2.73046875 23.3515625 C4.79296875 25.1015625 4.79296875 25.1015625 6.73046875 27.3515625 C6.5546875 29.3515625 6.5546875 29.3515625 5.73046875 31.3515625 C-0.94052528 35.96994298 -7.31730174 36.19246405 -15.26953125 35.3515625 C-20.57698249 33.64559603 -23.06920479 30.74058165 -26.26953125 26.3515625 C-28.22900071 20.47315411 -28.06283502 13.77554624 -26.14453125 7.9140625 C-19.78880419 -0.77209782 -10.33147575 -2.95185022 0 0 Z M-16.26953125 11.3515625 C-16.26953125 12.3415625 -16.26953125 13.3315625 -16.26953125 14.3515625 C-11.31953125 14.3515625 -6.36953125 14.3515625 -1.26953125 14.3515625 C-2.22649094 10.01607027 -2.22649094 10.01607027 -5.26953125 7.3515625 C-10.29660306 6.58657331 -12.7555248 7.73420292 -16.26953125 11.3515625 Z " fill="#040707" transform="translate(628.26953125,747.6484375)"/>
<path d="M0 0 C13.2 0 26.4 0 40 0 C40 2.97 40 5.94 40 9 C35.38 9 30.76 9 26 9 C26 21.54 26 34.08 26 47 C22.37 47 18.74 47 15 47 C15 34.46 15 21.92 15 9 C10.05 9 5.1 9 0 9 C0 6.03 0 3.06 0 0 Z " fill="#232D66" transform="translate(324,736)"/>
<path d="M0 0 C3.63 0 7.26 0 11 0 C11 2.97 11 5.94 11 9 C14.3 9 17.6 9 21 9 C21 11.64 21 14.28 21 17 C17.7 17 14.4 17 11 17 C11.14053872 19.62538284 11.28718947 22.25017427 11.4375 24.875 C11.47681641 25.62136719 11.51613281 26.36773438 11.55664062 27.13671875 C11.71573624 31.19986864 11.71573624 31.19986864 13 35 C15.31 35 17.62 35 20 35 C20.66 37.64 21.32 40.28 22 43 C17.21730018 45.79552172 12.39548584 45.77189754 7 45 C4.20633549 43.6410663 3.09360073 42.42416926 1 40 C0.01948522 37.11845674 -0.1181228 34.48217436 -0.09765625 31.453125 C-0.09282227 30.18662109 -0.09282227 30.18662109 -0.08789062 28.89453125 C-0.07951172 28.02183594 -0.07113281 27.14914062 -0.0625 26.25 C-0.05798828 25.36183594 -0.05347656 24.47367188 -0.04882812 23.55859375 C-0.037074 21.37232671 -0.02064249 19.18619821 0 17 C-1.65 17 -3.3 17 -5 17 C-5 14.36 -5 11.72 -5 9 C-3.35 9 -1.7 9 0 9 C0 6.03 0 3.06 0 0 Z " fill="#040707" transform="translate(741,739)"/>
<path d="M0 0 C3.63 0 7.26 0 11 0 C11 2.97 11 5.94 11 9 C14.3 9 17.6 9 21 9 C21 11.64 21 14.28 21 17 C17.7 17 14.4 17 11 17 C11.14053872 19.62538284 11.28718947 22.25017427 11.4375 24.875 C11.47681641 25.62136719 11.51613281 26.36773438 11.55664062 27.13671875 C11.71573624 31.19986864 11.71573624 31.19986864 13 35 C15.31 35 17.62 35 20 35 C20.66 37.64 21.32 40.28 22 43 C17.21730018 45.79552172 12.39548584 45.77189754 7 45 C4.20633549 43.6410663 3.09360073 42.42416926 1 40 C0.01948522 37.11845674 -0.1181228 34.48217436 -0.09765625 31.453125 C-0.09282227 30.18662109 -0.09282227 30.18662109 -0.08789062 28.89453125 C-0.07951172 28.02183594 -0.07113281 27.14914062 -0.0625 26.25 C-0.05798828 25.36183594 -0.05347656 24.47367188 -0.04882812 23.55859375 C-0.037074 21.37232671 -0.02064249 19.18619821 0 17 C-1.65 17 -3.3 17 -5 17 C-5 14.36 -5 11.72 -5 9 C-3.35 9 -1.7 9 0 9 C0 6.03 0 3.06 0 0 Z " fill="#040707" transform="translate(581,739)"/>
<path d="M0 0 C3.63 0 7.26 0 11 0 C11 16.5 11 33 11 50 C7.37 50 3.74 50 0 50 C0 33.5 0 17 0 0 Z " fill="#040707" transform="translate(895,733)"/>
<path d="M0 0 C3.63 0 7.26 0 11 0 C11 15.51 11 31.02 11 47 C7.37 47 3.74 47 0 47 C0 31.49 0 15.98 0 0 Z " fill="#040707" transform="translate(523,736)"/>
<path d="M0 0 C1.6570185 2.95376037 2.3425171 5.3883089 2.7109375 8.74609375 C2.81905762 9.65963623 2.92717773 10.57317871 3.03857422 11.5144043 C3.14959473 12.47902588 3.26061523 13.44364746 3.375 14.4375 C4.90004163 26.49357235 7.70471951 36.86543201 13.046875 47.85546875 C14 50 14 50 14 52 C10.13570743 50.59647423 6.90952878 48.78393517 3.48046875 46.5234375 C2.45888672 45.853125 1.43730469 45.1828125 0.38476562 44.4921875 C-0.67033203 43.79351563 -1.72542969 43.09484375 -2.8125 42.375 C-3.88693359 41.66859375 -4.96136719 40.9621875 -6.06835938 40.234375 C-8.71488802 38.49354727 -11.35863055 36.7486418 -14 35 C-13.52269162 33.5410574 -13.04308958 32.08286504 -12.5625 30.625 C-12.29566406 29.81289063 -12.02882813 29.00078125 -11.75390625 28.1640625 C-11 26 -11 26 -10 24 C-7.09457188 25.3024333 -5.1907039 26.70886268 -3 29 C-3.30035156 28.50371094 -3.60070312 28.00742187 -3.91015625 27.49609375 C-6.69647476 22.51850102 -7.58567703 19.68978227 -6 14 C-1.64835165 1.64835165 -1.64835165 1.64835165 0 0 Z " fill="#1B191E" transform="translate(416,565)"/>
<path d="M0 0 C3.63 0 7.26 0 11 0 C11.33 0.99 11.66 1.98 12 3 C13.0828125 2.2575 13.0828125 2.2575 14.1875 1.5 C17 0 17 0 22 0 C22 3.3 22 6.6 22 10 C19.68880208 10.71614583 17.37760417 11.43229167 15.06640625 12.1484375 C12.82201984 12.80882227 12.82201984 12.80882227 12 15 C11.84824451 16.59262066 11.75099675 18.19064856 11.68359375 19.7890625 C11.62075195 21.20058594 11.62075195 21.20058594 11.55664062 22.640625 C11.49766602 24.11789062 11.49766602 24.11789062 11.4375 25.625 C11.39431641 26.61757813 11.35113281 27.61015625 11.30664062 28.6328125 C11.20039053 31.08837033 11.09967545 33.54416651 11 36 C7.37 36 3.74 36 0 36 C0 24.12 0 12.24 0 0 Z " fill="#040707" transform="translate(640,747)"/>
<path d="M0 0 C2.76441733 0 3.45910126 1.03563953 5.4765625 2.8984375 C15.7332236 13.39751759 18.02040073 22.14380865 18.05029297 36.42822266 C17.92819231 44.96504911 17.57307392 53.48206432 17 62 C15 61 15 61 13.8581543 58.05053711 C13.44065034 56.73354514 13.03435003 55.4129714 12.63671875 54.08984375 C12.41892258 53.37763168 12.2011264 52.66541962 11.97673035 51.93162537 C9.48449713 43.57490034 7.63830988 35.08442544 5.8125 26.5625 C5.46745955 24.97706918 5.12175828 23.39178202 4.77539062 21.80664062 C4.12482942 18.82514542 3.47770449 15.84294814 2.83447266 12.85986328 C1.90687583 8.56925305 0.95903157 4.28367433 0 0 Z " fill="#1B191E" transform="translate(421,557)"/>
<path d="M0 0 C3.63 0 7.26 0 11 0 C11 11.88 11 23.76 11 36 C7.37 36 3.74 36 0 36 C0 24.12 0 12.24 0 0 Z " fill="#040707" transform="translate(765,747)"/>
<path d="M0 0 C3.5 0.25 3.5 0.25 5.5 2.25 C6.043379 8.22716895 6.043379 8.22716895 4.4375 11.25 C1.30758074 12.8654422 -1.18174093 12.04884015 -4.5 11.25 C-6.00662097 8.23675805 -5.67770373 5.56713623 -5.5 2.25 C-3.5 0.25 -3.5 0.25 0 0 Z " fill="#040707" transform="translate(770.5,730.75)"/>
<path d="M0 0 C0.33 0 0.66 0 1 0 C1 8.25 1 16.5 1 25 C-0.65 25.66 -2.3 26.32 -4 27 C-4.72843014 17.44947153 -2.5571371 9.09838514 0 0 Z " fill="#23559A" transform="translate(771,586)"/>
<path d="M0 0 C0.33 0 0.66 0 1 0 C1 5.28 1 10.56 1 16 C0.01 16.33 -0.98 16.66 -2 17 C-2.3690205 5.47835991 -2.3690205 5.47835991 0 0 Z " fill="#245EA8" transform="translate(769,596)"/>
<path d="M0 0 C2.7601593 2.38377394 4.05777504 4.46665639 5 8 C4.86787732 10.73392322 4.45909323 13.29134991 4 16 C0.41624224 12.41624224 0.07612239 6.86499859 -0.125 1.9375 C-0.08375 1.298125 -0.0425 0.65875 0 0 Z " fill="#245FA8" transform="translate(757,367)"/>
<path d="" fill="#1B191E" transform="translate(0,0)"/>
</svg>
