<svg xmlns="http://www.w3.org/2000/svg" viewBox="0 0 512 512" xmlns:v="https://vecta.io/nano"><g fill="#fd8469"><circle cx="256" cy="256" r="256"/><path d="M512 256c0 91.45-47.956 171.748-120.143 216.966C352.52 497.705 305.882 512 256 512s-96.418-14.295-135.857-38.932C48.057 427.748 0 347.45 0 256 0 114.668 114.566 0 256 0c141.332 0 256 114.668 256 256z"/></g><path d="M284.388 209.768c0-.912.101-1.926 0-2.839-.203-4.258 1.825-7.807 4.968-10.037-9.834-15.208-18.047-38.425-18.047-38.425h-31.531s-12.369 35.992-24.84 47.449l39.946 12.673v.608l1.014-.304 1.014.304v-.608l27.476-8.821z" fill="#f9b54c"/><path d="M288.038 310.647l17.438-28.794-10.646-77.763-39.338 3.346-36.398-3.65-2.028.203-18.351 38.425c-1.217 3.042 10.848 55.458 12.977 68.131h76.344v.102z" fill="#e6e9ee"/><path d="M261.982 229.031h-12.876l-8.618-21.595H270.6z" fill="#f1543f"/><path d="M261.982 229.031h-12.876l-8.618 55.459 15.005 19.871L270.6 284.49z" fill="#ff7058"/><g fill="#fff"><path d="M284.895 189.085s22.204 18.858-10.848 39.541l-18.554-20.886 29.402-18.655z"/><path d="M226.091 189.085s-22.204 18.858 10.848 39.541l18.554-20.886-29.402-18.655z"/></g><path d="M177.223 310.647c.101-.203.101-.507.203-.811 2.535-10.341 4.36-16.526 4.36-16.526l-23.015-52.518c-.101-.101-.101-.304-.203-.406l-7.503-17.134c-.101-.101-.101-.203-.101-.203-12.775 28.388-20.074 58.398-23.927 87.598h50.186 0z" fill="#324a5e"/><path d="M158.669 240.285c0 .101.101.304.203.406 5.678 14.701 13.282 38.223 18.655 69.044 0 .203.101.507.101.811h63.062l-4.562-6.083L212.809 234l4.461-30.01 5.272-10.544-.101.101c-.811.912-9.328 9.328-24.637 16.931-11.659 5.88-27.273 11.152-46.638 12.471 0 0 0 .101.101.203.407 1.114 3.448 6.995 7.402 17.133z" fill="#2b3b4e"/><path d="M234.303 310.647h13.282c-32.342-69.348-25.042-117.101-25.042-117.101l-25.549 17.641 15.816 3.042-15.816 6.59c11.253 42.684 25.042 71.072 37.309 89.828z" fill="#324a5e"/><path d="M334.777 310.647h50.186c-3.853-29.199-11.254-59.209-23.927-87.598 0 0 0 .101-.101.203l-7.401 16.931c-.101.101-.101.101-.101.203l-23.217 52.924s1.825 6.286 4.36 16.627c-.002.203.1.406.201.71z" fill="#2b3b4e"/><path d="M275.973 304.463l-4.562 6.083h63.062c0-.203.101-.507.101-.71 5.373-31.227 13.079-54.85 18.858-69.551 0-.101 0-.101.101-.203 3.853-10.037 6.793-15.816 7.401-16.931.101-.101.101-.203.101-.203-19.365-1.318-35.08-6.691-46.739-12.572-15.309-7.604-23.724-16.019-24.535-16.931l-.101-.101 5.272 10.544 4.36 30.01-.203.608-23.116 69.957z" fill="#324a5e"/><path d="M264.516 310.647h13.282c12.166-18.655 25.955-47.145 37.411-89.828l-15.816-6.59 15.816-3.042-25.549-17.641c-.101-.101 7.199 47.753-25.144 117.101z" fill="#2b3b4e"/><path d="M304.665 124.502c-.608 7.604-3.346 13.789-6.185 13.789s-4.461-6.185-3.853-13.789 3.346-13.789 6.185-13.789c2.839-.101 4.563 6.084 3.853 13.789zm-97.33 0c.608 7.604 3.346 13.789 6.185 13.789 2.737 0 4.461-6.185 3.853-13.789s-3.346-13.789-6.185-13.789-4.563 6.084-3.853 13.789z" fill="#f9b54c"/><path d="M290.066 81.109c-2.535-5.576-8.314-9.125-14.701-9.125h-19.061-19.061c-6.387 0-12.166 3.549-14.701 9.125-6.185 13.484-7.401 36.905-7.503 52.721 0 10.544 4.055 20.683 11.457 28.49l5.982 6.286c5.475 5.88 12.572 10.139 20.48 12.369l3.346.912 3.346-.912c7.908-2.23 15.005-6.489 20.48-12.369l5.982-6.286c7.401-7.807 11.457-18.047 11.457-28.49-.102-15.817-1.319-39.237-7.503-52.721z" fill="#ffd05b"/><path d="M302.333 67.929l-2.231-6.691c-.406-1.521-.71-3.042-1.521-4.461-1.622-2.94-5.171-4.461-8.516-4.157s-6.387 2.23-8.618 4.664c.507-3.143.608-6.59-.912-9.429-1.724-3.244-5.373-4.968-8.922-5.576-3.549-.71-7.198-.406-10.848-.811-3.954-.406-7.908-1.419-11.964-1.014-3.346.304-6.286 2.129-9.53 2.94-33.863 7.807-31.227 47.956-30.72 58.703.101 2.839.304 5.779 1.217 8.415 1.217 3.549 3.447 6.489 5.88 9.328.608-1.926.507-4.055 1.014-6.083.71-2.94 1.014-5.982 1.724-8.922.71-2.839 4.055-17.743 5.373-20.683 1.825-4.055 5.069-7.705 9.328-8.821 8.111-2.129 16.222 5.171 24.535 3.853 1.521-.304 3.042-.811 4.562-1.318 1.724-.608 3.447-1.115 5.171-1.622 3.954-1.115 8.111-1.926 11.964-.811 4.258 1.217 7.705 4.664 9.834 8.618s3.244 8.415 4.157 12.876c.608 2.636 1.115 5.272.811 8.01 0 .203 0 .406-.101.608.203 2.129-.101 4.36.304 6.489.304 1.622.811 3.244 1.115 4.968.101.71.304 1.521.507 2.23 2.839-5.272 4.968-11.051 5.982-17.033.912-4.867 1.115-9.733 1.318-14.6.608-6.794.912-13.486-.913-19.67z" fill="#11110f"/><path d="M132.722 278.528c-.08-.657-1.877-16.325 5.065-34.523 6.411-16.804 21.823-38.859 58.85-48.499l.511 1.963c-36.147 9.412-51.185 30.851-57.435 47.179-6.791 17.741-4.996 33.482-4.978 33.638l-2.013.242z" fill="#e6e9ee"/><path d="M412.236 266.747l-20.379 206.219C352.52 497.705 305.882 512 256 512s-96.418-14.295-135.857-38.932l-20.48-206.219h312.573v-.102h0z" fill="#ffd05b"/><ellipse cx="195.777" cy="196.385" rx="16.425" ry="12.673" fill="#54c0eb"/><g fill="#fff"><path d="M321.698 290.978c.406 23.724 5.475 47.651 15.715 67.118 14.904-17.54 6.692-55.357-15.715-67.118zm12.065 97.838c15.613 6.489 39.439-14.802 37.006-49.882-17.033 2.23-28.287 25.752-37.006 49.882h0zm-19.871 36.6h0c12.572 11.152 42.075-1.521 51.606-34.674h0 0c-16.932-3.346-35.385 14.6-51.606 34.674zm-31.532 28.591h0c8.009 14.701 40.757 11.862 60.832-16.425h0 0c-14.904-8.719-38.121 2.434-60.832 16.425zm46.638-66.712c8.516-25.549-8.212-46.131-25.042-43.596 1.723 18.351 9.023 37.31 25.042 43.596zm-19.061 35.181c16.627-21.494 7.705-45.928-9.023-48.97h0c-4.562 17.439-3.954 37.919 9.023 48.97zm-21.899-22.001h0c-10.037 15.005-16.83 34.775-8.415 49.375h0c23.522-15.106 23.116-41.162 8.415-49.375zm-16.627 56.878h0 0z"/><path d="M271.411 457.353L256 460.192l-15.411-2.839c1.521 1.622 3.346 3.143 5.373 4.664l-13.18 2.129 1.926 11.152c7.807-1.419 15.107-3.853 21.291-6.996 6.286 3.143 13.484 5.576 21.291 6.996l1.926-11.152c-4.562-.608-8.922-1.318-13.18-2.129 2.029-1.521 3.854-3.042 5.375-4.664zm-81.109-166.375c-22.406 11.761-30.619 49.578-15.715 67.118 10.24-19.466 15.309-43.393 15.715-67.118zm-12.065 97.838h0c-8.719-24.029-19.973-47.55-37.006-49.882-2.433 35.079 21.494 56.269 37.006 49.882zm19.872 36.6h0c-16.222-20.074-34.674-38.121-51.606-34.674h0 0c9.53 33.153 39.034 45.827 51.606 34.674zm-29.301 12.065h0 0c20.074 28.287 52.822 31.126 60.832 16.425h0c-22.711-13.89-45.928-25.043-60.832-16.425zm14.194-50.186c16.019-6.286 23.319-25.245 25.042-43.596-16.83-2.636-33.558 18.047-25.042 43.596zm19.061 35.181c12.977-11.051 13.586-31.531 9.023-48.97h0c-16.729 3.042-25.549 27.476-9.023 48.97zm21.899-22.001h0c-14.701 8.212-15.107 34.269 8.415 49.375h0c8.415-14.599 1.622-34.37-8.415-49.375z"/><path d="M240.589 457.353h0 0z"/></g></svg>