<svg xmlns="http://www.w3.org/2000/svg" viewBox="0 0 512 512" xmlns:v="https://vecta.io/nano"><path d="M283.072 420.056v-16.144c26.28-14.88 35.528-48.248 20.648-74.536-14.88-26.28-48.248-35.528-74.536-20.648-26.28 14.88-35.528 48.248-20.648 74.536a54.73 54.73 0 0 0 20.648 20.648v16.144c-50.96 2.4-76.872 36.84-76.872 60v19.024h207.616v-19.016c0-23.16-25.896-57.624-76.856-60.008z" fill="#e21b1b"/><path d="M464.064 412.648v-10.064c16.384-9.28 22.152-30.08 12.872-46.472-9.28-16.384-30.08-22.152-46.472-12.872s-22.152 30.08-12.872 46.472a34.17 34.17 0 0 0 12.872 12.872v10.064c-31.776 1.488-47.936 22.968-47.936 37.416v11.856H512v-11.856c0-14.44-16.16-35.928-47.936-37.416zm-382.536 0v-10.064c16.384-9.28 22.152-30.08 12.872-46.472-9.28-16.384-30.08-22.152-46.472-12.872s-22.152 30.08-12.872 46.472a34.17 34.17 0 0 0 12.872 12.872v10.064C16.16 414.136 0 435.624 0 450.064v11.856h129.472v-11.856c0-14.44-16.16-35.928-47.944-37.416z" fill="#333"/><path d="M231.448 12.92H424.44c20.952 0 37.936 16.984 37.936 37.936v126.008c0 20.952-16.984 37.936-37.936 37.936H231.448c-20.952 0-37.936-16.984-37.936-37.936V50.856c0-20.952 16.984-37.936 37.936-37.936z" fill="#e21b1b"/><path d="M254.192 214.8v57.84l78.08-57.84z" fill="#333"/></svg>