<svg xmlns="http://www.w3.org/2000/svg" viewBox="0 0 511.993 511.993" xmlns:v="https://vecta.io/nano"><circle cx="255.979" cy="255.996" r="255.979" fill="#59d8ff"/><path d="M355.461 402.945c-141.373 0-255.979-114.606-255.979-255.979 0-39.638 9.016-77.168 25.099-110.661C49.962 81.031 0 162.666 0 255.994c0 141.373 114.606 255.979 255.979 255.979 101.735 0 189.602-59.353 230.88-145.318-38.415 23.026-83.352 36.29-131.398 36.29z" fill="#00c3ff"/><path d="M333.631 64.58l10.424 15.788a4.27 4.27 0 0 1-2.457 6.472l-7.214 1.933a4.27 4.27 0 0 1-5.225-3.017l-4.646-17.337a4.27 4.27 0 0 1 3.017-5.225l1.435-.384a4.27 4.27 0 0 1 4.666 1.77zm-13.072 23.177l.076.284a4.27 4.27 0 0 1-3.017 5.225l-.284.076c-2.275.61-4.616-.741-5.225-3.017l-.076-.284a4.27 4.27 0 0 1 3.017-5.225l.284-.076c2.275-.61 4.614.74 5.225 3.017zm43.828-53.893l-.474 7.906a6.25 6.25 0 0 1-2.089 4.296l-8.163 7.239c-2.579 2.287-2.816 6.232-.529 8.811l5.191 5.853a4.09 4.09 0 0 0 6.6-.668l.284-.493c1.723-2.985 5.54-4.008 8.526-2.285h0c2.985 1.723 6.802.7 8.526-2.285l3.12-5.405.99-4.834 5.047 5.691c2.52 2.842 1.939 7.256-1.231 9.349l-16.443 10.857c-.559.37-1.176.647-1.824.82l-13.576 3.638a6.24 6.24 0 0 0-3.79 2.908l-4.949 8.572-2.985.8a5.74 5.74 0 0 0-4.057 7.026l1.469 5.482c.892 3.33-1.084 6.753-4.413 7.644l-13.521 3.623a6.24 6.24 0 0 0-4.413 7.644l3.623 13.521a6.24 6.24 0 0 0 7.644 4.413l23.73-6.358c2.595-.696 4.454-2.973 4.615-5.655l1.403-23.372 8.526-2.285 23.304 7.883c2.926.99 5.774-1.68 4.974-4.663h0c-.265-.991-.914-1.836-1.801-2.348l-9.424-5.441 8.526-2.285 15.558 3.183a6.24 6.24 0 0 1 4.777 4.5l2.409 8.992c.641 2.394 3.101 3.814 5.495 3.172l1.513-.405c1.641-.44 2.894-1.769 3.234-3.434l.898-4.391c1.031-5.039 7.372-6.738 10.784-2.889l4.813 5.428 8.526-2.285 9.115 13.805c2.714 4.11-.179 9.597-5.104 9.68l-24.253.408a6.17 6.17 0 0 0-1.511.212l-12.738 3.413a3.7 3.7 0 0 0-2.614 4.528h0a3.7 3.7 0 0 1-3.792 4.648l-18.252-1.095a6.24 6.24 0 0 1-5.655-4.615l-1.789-6.678a6.24 6.24 0 0 0-7.644-4.413l-10.045 2.691c-.648.174-1.263.45-1.824.82l-21.603 14.264c-.559.37-1.176.647-1.824.82l-12.347 3.309a6.24 6.24 0 0 0-4.5 4.777l-2.837 13.862a10.68 10.68 0 0 1-1.212 3.195l-9.408 16.296c-1.414 2.45-1.798 5.361-1.065 8.093l6.851 25.569c.732 2.733 2.52 5.061 4.969 6.476l24.78 14.306c2.45 1.414 5.361 1.798 8.093 1.065l49.386-13.233c3.33-.892 6.753 1.084 7.644 4.413l7.141 26.653a6.24 6.24 0 0 0 1.359 2.525l11.14 12.563a6.25 6.25 0 0 1 1.359 2.525l3.989 14.887a6.22 6.22 0 0 0 .572 1.414l32.59 58.707c1.39 2.504 4.307 3.74 7.073 2.999l7.032-1.884c1.893-.507 3.46-1.853 4.217-3.661 21.132-50.454 26.382-108.014 11.129-164.939-19.394-72.406-67.995-129.16-129.714-161.085-4.023-2.079-8.861.692-9.131 5.21zM255.37 295.6L247 282.924a8.83 8.83 0 0 0-9.65-3.663l-7.375 1.977c-2.261.606-4.67.289-6.698-.882l-15.289-8.827a8.83 8.83 0 0 0-6.698-.882l-9.989 2.677c-2.261.606-4.67.289-6.698-.882l-2.134-1.232a8.83 8.83 0 0 0-10.27 1.04l-8.448 7.492a8.83 8.83 0 0 1-3.572 1.922l-8.894 2.383c-3.67.984-7.557-.492-9.65-3.663l-9.205-13.941a8.83 8.83 0 0 0-7.515-3.962l-19.021.32c-6.103.103-10.465-5.872-8.51-11.654l4.67-13.807c.946-2.796 3.226-4.934 6.077-5.698l15.746-4.219c3.229-.865 6.671.168 8.889 2.67l7.239 8.163c1.371 1.547 3.497 2.185 5.494 1.65h0c2.911-.78 4.637-3.771 3.857-6.682l-4.405-16.44a8.83 8.83 0 0 1 1.192-7.197l48.142-71.875c1.19-1.776 2.984-3.061 5.05-3.615l19.072-5.11c5.82-1.56 8.401-8.362 5.082-13.389l-6.619-10.023c-1.289-1.953-3.303-3.315-5.596-3.784L183.4 96.088c-4.18-.856-8.373 1.401-9.961 5.36l-10.585 26.373c-1.746 4.348-6.582 6.575-11.02 5.073l-10.419-3.524c-5.769-1.952-7.875-9.021-4.115-13.811l17.731-22.589a8.82 8.82 0 0 1 4.659-3.076l27-7.235c2.355-.63 4.775.767 5.405 3.12h0a4.41 4.41 0 0 0 5.405 3.12l12.789-3.427a8.83 8.83 0 0 0 6.242-10.81l-2.285-8.526a8.83 8.83 0 0 0-10.81-6.242L154.08 73.12c-6.732 1.804-12.781 5.56-17.383 10.797l-11.321 12.882c-1.125 1.28-3.222.789-3.663-.856l-1.253-4.676a8.83 8.83 0 0 0-10.81-6.242l-13.52 3.623c-2.261.606-4.189 2.086-5.36 4.112l-7.037 12.189a8.83 8.83 0 0 1-10.473 3.948l-15.228-5.152c-3.753-1.269-7.868.107-10.172 3.33-22.581 31.593-37.902 68.151-44.376 106.917l3.404-.913 28.414 47.392c2.741 4.571 8.179 6.772 13.327 5.392h0a16.16 16.16 0 0 1 14.851 3.471l14.662 12.885a8.83 8.83 0 0 0 6.395 2.178l36.958-2.383c2.719-.175 5.365.914 7.172 2.952l6.612 7.455c2.218 2.502 5.66 3.535 8.889 2.67l11.783-3.157a8.83 8.83 0 0 1 10.81 6.242l1.338 4.994c.606 2.261.289 4.67-.882 6.698l-3.372 5.84c-.685 1.186-1.084 2.517-1.166 3.885l-1.179 19.639c-.222 3.692 1.882 7.129 5.269 8.613l42.245 18.509c2.456 1.076 4.29 3.21 4.983 5.8l18.923 70.624c.354 1.324 1.012 2.547 1.922 3.572l34.283 38.662c2.218 2.502 5.66 3.535 8.889 2.67l1.718-.46a8.83 8.83 0 0 0 5.75-12.182l-16.038-35.253a8.83 8.83 0 0 1 .39-8.068l20.867-36.143a8.83 8.83 0 0 0 .882-6.698l-3.623-13.521a8.83 8.83 0 0 1 6.242-10.81l10.906-2.922c3.67-.984 6.299-4.205 6.526-7.997l2.56-42.645a8.83 8.83 0 0 0-5.982-8.891l-21.23-7.182c-1.651-.558-3.43-.616-5.114-.165l-16.852 4.515a8.82 8.82 0 0 1-9.646-3.66z" fill="#b4ff87"/><path d="M84.537 284.397l36.958-2.383a8.83 8.83 0 0 1 7.173 2.952l6.612 7.455c2.218 2.502 5.659 3.535 8.888 2.67l1.305-.35c-7.135-10.125-13.573-20.852-19.245-32.117-.436-.059-.865-.153-1.313-.145l-19.021.32c-6.103.103-10.465-5.871-8.51-11.654l4.672-13.807c.946-2.796 3.226-4.934 6.077-5.698l4.615-1.236c-1.896-5.538-3.682-11.14-5.22-16.878-11.606-43.313-11.301-86.977-1.202-127.614l-10.198 2.733a8.83 8.83 0 0 0-5.36 4.112l-7.037 12.187a8.83 8.83 0 0 1-10.473 3.948L58.03 103.74c-3.669-1.241-7.658.076-9.988 3.145-3.259 4.546-6.354 9.201-9.308 13.945-1.046 1.684-2.028 3.406-3.036 5.114a255.88 255.88 0 0 0-5.999 10.733l-3.015 5.801c-2.407 4.854-4.691 9.77-6.788 14.772-.757 1.808-1.423 3.656-2.139 5.482-1.517 3.862-2.959 7.754-4.29 11.691a258.08 258.08 0 0 0-2.316 7.254c-1.063 3.484-2.024 7.003-2.939 10.535l-1.795 6.981c-1.116 4.881-2.04 9.816-2.87 14.774l3.341-.895 28.414 47.39c2.74 4.571 8.179 6.772 13.327 5.392 5.219-1.398 10.793-.096 14.852 3.471l14.662 12.885c1.757 1.554 4.057 2.339 6.394 2.187zm206.166 111.181c.082-.142.082-.313.156-.459-49.129-12.721-93.643-39.846-127.473-77.881-.276.777-.658 1.526-.707 2.356l-1.179 19.639c-.222 3.692 1.881 7.129 5.269 8.613l42.246 18.51a8.82 8.82 0 0 1 4.983 5.8l18.923 70.624c.354 1.324 1.012 2.547 1.922 3.572l34.283 38.662c2.218 2.502 5.659 3.535 8.888 2.67l1.718-.46a8.83 8.83 0 0 0 5.75-12.181l-16.038-35.253a8.83 8.83 0 0 1 .39-8.069l20.869-36.143z" fill="#9bf57d"/><path d="M310.113 151.706c-21.157 0-40.312 8.64-54.2 22.609-13.888-13.969-33.043-22.609-54.2-22.609-42.406 0-76.783 34.692-76.783 77.487 0 59.254 68.881 130.473 130.983 159.53 62.103-29.057 130.983-100.276 130.983-159.53.001-42.794-34.375-77.487-76.783-77.487z" fill="#ff6991"/><path d="M208.51 219.711c0-25.074 9.437-47.302 24.011-61.463-9.436-4.181-19.842-6.542-30.808-6.542-42.407 0-76.784 34.691-76.784 77.486 0 59.254 68.881 130.474 130.983 159.532 12.583-5.887 25.425-13.572 37.936-22.47-43.522-33.951-85.338-94.803-85.338-146.543z" fill="#ff507d"/></svg>